<?xml version="1.0" encoding="iso-8859-1"?>
<!-- Generator: Adobe Illustrator 24.1.2, SVG Export Plug-In . SVG Version: 6.00 Build 0)  -->
<svg version="1.1" baseProfile="basic" id="Layer_1"
	 xmlns="http://www.w3.org/2000/svg" xmlns:xlink="http://www.w3.org/1999/xlink" x="0px" y="0px" viewBox="0 0 30 30"
	 xml:space="preserve">
<polygon style="fill:#FFFF55;" points="22,1 18.5,4.5 4,19 3,24 2,28 6,27 11,26 19.5,17.5 25.5,11.5 29,8 "/>
<polygon style="fill:#FF7575;" points="29,8 25.5,11.5 22,8 "/>
<polygon style="fill:#FF9F9F;" points="22,1 18.5,4.5 22,8 "/>
<polygon style="fill:#FFD72B;" points="6,27 11,26 7.5,22.5 "/>
<polygon style="fill:#FFFF55;" points="3,24 4,19 7.5,22.5 "/>
<polygon style="fill:#FFEA3E;" points="4,19 18.5,4.5 7.5,22.5 "/>
<polygon style="fill:#FF8F8F;" points="29,8 22,8 22,1 "/>
<polygon style="fill:#FFEA3E;" points="7.5,22.5 3,24 6,27 "/>
<polygon style="fill:#FFCA1E;" points="19,11 18.5,4.5 25.5,11.5 "/>
<polygon style="fill:#FFCA1E;" points="3,24 2,28 5,26 "/>
<polygon style="fill:#FFB519;" points="5,26 2,28 6,27 "/>
<polygon style="fill:#FFB519;" points="7.5,22.5 19.5,17.5 11,26 "/>
<polygon style="fill:#FFB519;" points="25.5,11.5 19.5,17.5 19,11 "/>
<polygon style="fill:#FFD72B;" points="18.5,4.5 19,11 7.5,22.5 "/>
<polygon style="fill:#FFCA1E;" points="19,11 19.5,17.5 7.5,22.5 "/>
</svg>